<?xml version="1.0" standalone="no"?>
<!DOCTYPE svg PUBLIC "-//W3C//DTD SVG 20010904//EN"
 "http://www.w3.org/TR/2001/REC-SVG-20010904/DTD/svg10.dtd">
<svg version="1.0" xmlns="http://www.w3.org/2000/svg"
 width="401.000000pt" height="401.000000pt" viewBox="0 0 401.000000 401.000000"
 preserveAspectRatio="xMidYMid meet">

<g transform="translate(0.000000,401.000000) scale(0.100000,-0.100000)"
fill="#000000" stroke="none">
<path d="M240 2071 l0 -281 26 -6 c19 -5 22 -9 12 -15 -10 -6 -10 -9 0 -9 6 0
12 -5 12 -10 0 -7 -6 -7 -19 0 -11 5 -22 10 -25 10 -4 0 -5 -33 -4 -72 3 -70
4 -73 28 -73 22 0 25 5 28 43 3 41 4 42 39 42 35 0 36 1 17 15 -17 14 -16 14
13 0 20 -9 60 -15 107 -15 67 0 75 2 70 18 -5 16 -5 16 6 0 6 -10 18 -18 26
-18 12 0 14 12 12 56 l-3 57 -85 -1 c-47 -1 -107 -2 -134 -2 -27 -1 -53 3 -57
7 -5 5 -10 126 -11 268 l-3 260 -27 3 -28 3 0 -280z m116 -316 c19 -14 18 -14
-3 -15 -13 0 -23 -4 -23 -8 0 -5 -7 -9 -15 -9 -8 0 -15 6 -15 13 0 8 7 11 18
8 14 -5 14 -3 -2 10 -20 16 -20 16 0 16 11 0 29 -7 40 -15z"/>
<path d="M649 2337 c-6 -50 -2 -327 4 -327 4 0 7 5 7 12 0 6 3 8 7 5 3 -4 0
-15 -9 -24 -12 -15 -14 -52 -12 -198 1 -99 2 -183 3 -186 2 -12 83 -1 92 12 7
12 9 11 9 -1 0 -13 24 -15 155 -15 175 0 168 -4 163 80 l-3 40 -125 5 -125 5
3 63 c2 36 -1 68 -7 76 -20 24 16 41 93 43 39 1 81 2 94 2 19 1 22 6 22 39 -1
59 -47 101 -78 70 -9 -9 -12 -9 -12 0 0 7 -11 12 -25 12 -20 0 -25 -5 -25 -25
0 -16 -6 -25 -15 -25 -8 0 -15 5 -15 10 0 6 5 10 11 10 16 0 -1 20 -25 30 -22
8 -23 13 -19 86 2 43 5 79 7 81 2 2 403 4 832 3 l171 0 6 -47 c6 -42 25 -165
83 -523 9 -52 21 -131 27 -175 l12 -80 65 2 64 1 42 248 c23 136 41 265 40
286 -1 21 1 38 5 38 4 0 9 15 12 33 3 17 14 74 23 125 l17 92 316 0 c839 1
1024 0 1030 -6 3 -3 6 -39 7 -81 1 -70 -1 -75 -23 -84 -18 -7 -23 -14 -18 -29
4 -11 2 -20 -4 -20 -6 0 -13 11 -17 25 -6 25 -44 37 -44 13 0 -9 -3 -9 -12 0
-31 31 -77 -11 -78 -70 0 -42 -3 -41 109 -39 57 1 107 -21 95 -41 -4 -7 -3 -8
5 -4 9 6 9 11 -1 24 -11 13 -11 14 1 11 23 -8 24 -26 2 -48 -15 -15 -19 -30
-16 -70 2 -28 -1 -54 -6 -57 -5 -3 -51 -5 -101 -6 -131 0 -128 1 -128 -67 l0
-58 150 -1 c129 -1 150 1 150 14 0 14 2 13 16 -1 10 -10 29 -15 48 -13 l31 3
2 73 c1 53 -2 70 -10 65 -8 -5 -8 -2 0 9 19 23 15 218 -5 241 -8 9 -10 17 -4
17 6 0 12 -6 15 -12 3 -7 5 67 5 164 l-1 177 -807 0 c-902 0 -834 5 -844 -69
-12 -87 -37 -311 -41 -374 -2 -37 -6 -71 -10 -74 -20 -21 -36 60 -51 267 -6
87 -9 96 -38 127 -17 18 -49 54 -71 79 l-40 45 -592 -1 c-450 0 -593 -3 -594
-12z m236 -57 c3 -5 1 -10 -4 -10 -6 0 -11 5 -11 10 0 6 2 10 4 10 3 0 8 -4
11 -10z m2640 0 c3 -5 1 -10 -4 -10 -6 0 -11 5 -11 10 0 6 2 10 4 10 3 0 8 -4
11 -10z m-308 -16 c-3 -3 -12 -4 -19 -1 -8 3 -5 6 6 6 11 1 17 -2 13 -5z
m-1066 -207 c-10 -9 -11 -8 -5 6 3 10 9 15 12 12 3 -3 0 -11 -7 -18z m-1451
-3 c0 -8 -4 -12 -10 -9 -5 3 -10 10 -10 16 0 5 5 9 10 9 6 0 10 -7 10 -16z
m1252 -6 c-7 -7 -12 -8 -12 -2 0 6 3 14 7 17 3 4 9 5 12 2 2 -3 -1 -11 -7 -17z
m1758 13 c0 -12 -20 -25 -27 -18 -7 7 6 27 18 27 5 0 9 -4 9 -9z m-3005 -51
c3 -5 1 -10 -4 -10 -6 0 -11 5 -11 10 0 6 2 10 4 10 3 0 8 -4 11 -10z m2995 0
c0 -5 -5 -10 -11 -10 -5 0 -7 5 -4 10 3 6 8 10 11 10 2 0 4 -4 4 -10z m-2960
-26 c0 -3 -5 -15 -12 -27 -10 -21 -10 -21 7 -7 16 13 18 13 13 0 -2 -8 -12
-16 -21 -18 -12 -2 -15 4 -15 27 1 19 6 31 15 31 7 0 13 -3 13 -6z m2934 -21
c-1 -33 -16 -40 -35 -16 -11 15 -11 16 1 6 18 -17 38 -17 22 -1 -16 16 -15 38
1 38 7 0 12 -11 11 -27z m-2667 11 c-3 -3 -12 -4 -19 -1 -8 3 -5 6 6 6 11 1
17 -2 13 -5z m-205 -66 c-8 -8 -9 -15 0 -25 6 -7 8 -16 5 -19 -8 -9 -29 35
-22 46 3 6 11 10 18 10 8 0 8 -3 -1 -12z m-44 -80 c-2 -6 -14 -13 -27 -15 -14
-2 -20 1 -16 8 4 6 13 8 21 5 8 -3 14 -1 14 4 0 6 3 10 6 10 3 0 4 -5 2 -12z
m2898 -1 c8 3 14 1 14 -4 0 -5 -9 -9 -20 -10 -13 -1 -20 4 -19 15 0 10 3 12 5
5 3 -7 12 -9 20 -6z m-2866 -67 c0 -5 -2 -10 -4 -10 -3 0 -8 5 -11 10 -3 6 -1
10 4 10 6 0 11 -4 11 -10z m2830 6 c0 -3 -4 -8 -10 -11 -5 -3 -10 -1 -10 4 0
6 5 11 10 11 6 0 10 -2 10 -4z m-2849 -53 c-8 -15 -10 -15 -11 -2 0 17 10 32
18 25 2 -3 -1 -13 -7 -23z m2858 -6 c0 -21 -1 -21 -9 -2 -12 28 -12 37 0 30 6
-3 10 -16 9 -28z m-2832 -49 c-3 -7 -5 -2 -5 12 0 14 2 19 5 13 2 -7 2 -19 0
-25z m-32 13 c3 -5 1 -12 -5 -16 -5 -3 -10 1 -10 9 0 18 6 21 15 7z m2832 -13
c-3 -8 -6 -5 -6 6 -1 11 2 17 5 13 3 -3 4 -12 1 -19z m43 2 c0 -5 -4 -10 -10
-10 -5 0 -10 5 -10 10 0 6 5 10 10 10 6 0 10 -4 10 -10z"/>
<path d="M1916 2322 c16 -15 34 -36 39 -47 8 -17 10 -15 13 13 5 51 -3 62 -45
62 l-37 0 30 -28z"/>
<path d="M548 2273 c-3 -67 -4 -68 -32 -71 -36 -4 -46 10 -46 66 0 36 -3 43
-17 40 -14 -2 -19 -16 -23 -53 -5 -48 -6 -50 -35 -50 -30 0 -30 0 -33 63 -3
59 -5 63 -25 60 -21 -3 -22 -7 -20 -88 0 -47 2 -95 2 -107 1 -23 3 -23 136
-21 l135 1 0 114 c0 105 -1 113 -20 113 -17 0 -19 -8 -22 -67z"/>
<path d="M1215 2133 c-45 -8 -87 -60 -98 -120 -11 -58 10 -44 47 32 20 41 41
75 45 75 10 0 -67 -153 -81 -161 -14 -9 -18 -214 -6 -267 6 -25 21 -51 36 -62
26 -21 92 -27 92 -9 0 6 6 9 14 6 8 -3 20 1 26 9 7 8 18 14 25 14 7 0 16 12
20 27 5 21 8 24 15 13 5 -8 5 -17 1 -20 -5 -3 -11 -15 -15 -27 -7 -21 -4 -23
33 -23 l41 0 0 138 c-1 127 -2 135 -16 107 -14 -30 -14 -30 -9 -3 l5 28 -60
-1 -60 -1 0 -38 c0 -29 4 -39 20 -43 16 -4 20 -14 20 -49 0 -24 -5 -49 -12
-56 -17 -17 -65 -15 -72 4 -3 9 -6 84 -6 167 1 160 6 179 46 185 27 4 42 -15
46 -58 3 -34 4 -35 51 -38 l47 -3 0 46 c0 55 -23 98 -59 115 -27 12 -102 20
-136 13z m25 -54 c0 -6 -4 -7 -10 -4 -5 3 -10 11 -10 16 0 6 5 7 10 4 6 -3 10
-11 10 -16z m100 -230 c0 -6 -4 -7 -10 -4 -5 3 -10 11 -10 16 0 6 5 7 10 4 6
-3 10 -11 10 -16z m30 -84 c0 -5 -5 -3 -10 5 -5 8 -10 20 -10 25 0 6 5 3 10
-5 5 -8 10 -19 10 -25z m-13 -47 c-3 -8 -6 -5 -6 6 -1 11 2 17 5 13 3 -3 4
-12 1 -19z m37 7 c3 -8 1 -15 -4 -15 -6 0 -10 7 -10 15 0 8 2 15 4 15 2 0 6
-7 10 -15z"/>
<path d="M1565 2132 c-37 -8 -84 -52 -95 -90 -7 -22 -10 -96 -8 -189 3 -136 5
-155 24 -180 12 -15 27 -28 35 -28 8 0 17 -5 21 -12 11 -16 106 -14 140 3 60
31 68 61 67 239 0 110 -5 167 -14 185 -14 27 -55 68 -55 55 0 -4 -6 -3 -12 3
-15 12 -74 20 -103 14z m60 -62 c-3 -6 1 -17 9 -26 13 -13 16 -43 16 -165 0
-135 -2 -151 -20 -169 -22 -22 -45 -18 -60 11 -10 19 -14 269 -4 304 3 11 17
28 32 37 33 20 35 20 27 8z m110 -110 c-3 -5 -12 -10 -18 -10 -7 0 -6 4 3 10
19 12 23 12 15 0z m-15 -34 c0 -3 -4 -8 -10 -11 -5 -3 -10 -1 -10 4 0 6 5 11
10 11 6 0 10 -2 10 -4z"/>
<path d="M2291 1878 l0 -258 135 0 134 0 0 40 0 39 -77 3 -78 3 -3 50 c-2 27
-9 56 -15 64 -9 11 -9 13 0 8 6 -4 14 -3 18 3 3 5 33 10 66 10 58 0 59 0 59
29 0 38 -18 51 -64 48 -56 -5 -68 9 -64 73 l3 55 73 3 73 3 -3 42 -3 42 -127
0 -128 0 1 -257z m63 -14 c3 -8 2 -13 -3 -9 -5 3 -11 -1 -14 -7 -3 -7 -4 -3
-4 10 1 25 12 29 21 6z"/>
<path d="M2616 2133 c-3 -3 -6 -18 -6 -31 0 -21 15 -24 15 -4 0 4 4 12 8 19 8
13 -6 27 -17 16z"/>
<path d="M2651 2126 c-7 -8 -15 -33 -18 -56 -3 -22 -9 -40 -13 -40 -4 0 -8
-56 -9 -125 -1 -84 1 -125 9 -125 6 0 15 10 20 23 5 12 18 33 29 47 16 20 21
21 21 8 0 -9 -5 -20 -10 -23 -6 -4 -8 -10 -6 -14 3 -4 -4 -14 -15 -21 -10 -8
-19 -21 -19 -28 0 -8 -6 -12 -14 -9 -11 4 -13 -10 -14 -68 0 -73 1 -73 29 -77
18 -3 26 -1 22 6 -4 6 0 6 8 -1 29 -24 41 1 42 92 1 48 -1 89 -5 92 -5 2 -8
-4 -9 -14 0 -10 -3 -13 -5 -6 -3 6 2 23 12 37 13 20 25 26 53 26 42 0 38 12
45 -150 2 -36 4 -68 5 -71 0 -4 16 -9 35 -11 33 -4 34 -2 31 24 -2 15 -7 38
-10 50 -7 23 -7 23 9 3 8 -11 16 -26 16 -33 0 -7 5 -10 10 -7 6 3 10 40 10 81
0 42 -4 73 -9 70 -5 -4 -7 3 -4 13 3 13 -5 30 -22 47 l-28 28 29 24 c23 20 29
34 32 83 7 101 -24 127 -164 135 -64 4 -84 2 -93 -10z m50 -75 c0 -10 2 -12 6
-3 2 6 17 12 33 12 53 0 60 -8 60 -65 0 -44 -4 -55 -22 -67 -13 -7 -33 -12
-45 -10 -19 3 -23 10 -23 38 0 19 1 36 3 38 1 2 -6 13 -16 23 -9 11 -14 22
-11 26 4 4 -1 19 -11 34 l-18 28 21 -19 c12 -11 22 -26 23 -35z m39 39 c0 -5
-5 -10 -11 -10 -5 0 -7 5 -4 10 3 6 8 10 11 10 2 0 4 -4 4 -10z m35 -200 c3
-5 1 -10 -4 -10 -6 0 -11 5 -11 10 0 6 2 10 4 10 3 0 8 -4 11 -10z m70 -146
c5 -22 1 -18 -14 15 -24 51 -27 64 -7 35 8 -11 18 -34 21 -50z m-158 -16 c-3
-8 -6 -5 -6 6 -1 11 2 17 5 13 3 -3 4 -12 1 -19z m-37 -84 c0 -8 -5 -12 -10
-9 -6 4 -8 11 -5 16 9 14 15 11 15 -7z m40 12 c0 -3 -4 -8 -10 -11 -5 -3 -10
-1 -10 4 0 6 5 11 10 11 6 0 10 -2 10 -4z"/>
<path d="M3081 2130 c-51 -8 -104 -57 -99 -93 1 -12 -1 -27 -5 -34 -4 -6 -3
-22 2 -35 9 -20 16 -11 12 15 0 4 3 7 7 7 5 0 14 12 21 26 6 15 14 24 17 21 3
-3 -6 -28 -21 -57 -30 -59 -30 -60 49 -118 93 -67 119 -118 80 -156 -34 -35
-74 -9 -74 48 0 24 -3 26 -50 26 l-50 0 0 -43 c0 -77 50 -117 145 -117 174 0
212 162 64 275 -28 22 -61 49 -73 60 -11 11 -26 19 -31 17 -7 -1 -9 12 -7 34
8 69 83 69 96 -1 7 -34 8 -35 51 -35 l45 0 0 43 c0 86 -73 134 -179 117z m-24
-382 c-3 -8 -6 -5 -6 6 -1 11 2 17 5 13 3 -3 4 -12 1 -19z"/>
<path d="M317 2058 c-7 -51 0 -58 54 -58 l49 0 0 -35 0 -35 -50 0 -50 0 0 -45
0 -45 136 0 135 0 -3 43 -3 42 -57 3 -58 3 0 34 0 35 60 0 60 0 0 44 0 44
-134 1 -134 1 -5 -32z"/>
</g>
</svg>
